HIERARCHY
ROOT Hips
{
	OFFSET 0.000000 8.830580 0.000000
	CHANNELS 6 Xposition Yposition Zposition Zrotation Yrotation Xrotation 
	JOINT Spine
	{
		OFFSET 0.000000 0.010000 0.000000
		CHANNELS 3 Zrotation Yrotation Xrotation
		JOINT Spine1
		{
			OFFSET 0.000000 2.459130 0.000000
			CHANNELS 3 Zrotation Yrotation Xrotation
			JOINT Neck
			{
				OFFSET 0.000000 2.484630 0.000000
				CHANNELS 3 Zrotation Yrotation Xrotation
				JOINT Head_virtual
				{
					OFFSET 0.000000 0.000000 0.000000
					CHANNELS 3 Zrotation Yrotation Xrotation
					JOINT Head
					{
						OFFSET 0.000000 0.927525 0.000000
						CHANNELS 3 Zrotation Yrotation Xrotation
						End Site
						{
							OFFSET 0.000000 0.000000 0.000000
						}
					}
				}
				JOINT LeftUpArm_virtual
				{
					OFFSET 0.000000 0.000000 0.000000
					CHANNELS 3 Zrotation Yrotation Xrotation
					JOINT LeftUpArm
					{
						OFFSET 1.248820 0.000000 0.000000
						CHANNELS 3 Zrotation Yrotation Xrotation
						JOINT LeftForeArm
						{
							OFFSET 2.597580 0.000000 0.000000
							CHANNELS 3 Zrotation Yrotation Xrotation
							JOINT LeftHand
							{
								OFFSET 2.455420 0.000000 0.000000
								CHANNELS 3 Zrotation Yrotation Xrotation
								End Site
								{
									OFFSET 0.000000 0.000000 0.000000
								}
							}
						}
					}
				}
				JOINT RightUpArm_virtual
				{
					OFFSET -0.000000 -0.000000 -0.000000
					CHANNELS 3 Zrotation Yrotation Xrotation
					JOINT RightUpArm
					{
						OFFSET -1.248820 -0.000000 -0.000000
						CHANNELS 3 Zrotation Yrotation Xrotation
						JOINT RightForeArm
						{
							OFFSET -2.597580 -0.000000 -0.000000
							CHANNELS 3 Zrotation Yrotation Xrotation
							JOINT RightHand
							{
								OFFSET -2.455420 -0.000000 -0.000000
								CHANNELS 3 Zrotation Yrotation Xrotation
								End Site
								{
									OFFSET 0.000000 0.000000 0.000000
								}
							}
						}
					}
				}
			}
		}
	}
	JOINT LeftUpLeg
	{
		OFFSET 1.271939 0.000000 0.000000
		CHANNELS 3 Zrotation Yrotation Xrotation
		JOINT LeftLowLeg
		{
			OFFSET 0.000000 -4.342910 0.000000
			CHANNELS 3 Zrotation Yrotation Xrotation
			JOINT LeftFoot
			{
				OFFSET 0.000000 -4.487670 0.000000
				CHANNELS 3 Zrotation Yrotation Xrotation
				JOINT LeftToeBase
				{
					OFFSET 0.000000 0.000000 1.515070
					CHANNELS 3 Zrotation Yrotation Xrotation
					End Site
					{
						OFFSET 0.000000 0.000000 0.000000
					}
				}
			}
		}
	}
	JOINT RightUpLeg
	{
		OFFSET -1.271939 0.000000 0.000000
		CHANNELS 3 Zrotation Yrotation Xrotation
		JOINT RightLowLeg
		{
			OFFSET 0.000000 -4.342910 0.000000
			CHANNELS 3 Zrotation Yrotation Xrotation
			JOINT RightFoot
			{
				OFFSET 0.000000 -4.487670 0.000000
				CHANNELS 3 Zrotation Yrotation Xrotation
				JOINT RightToeBase
				{
					OFFSET 0.000000 0.000000 1.515070
					CHANNELS 3 Zrotation Yrotation Xrotation
					End Site
					{
						OFFSET 0.000000 0.000000 0.000000
					}
				}
			}
		}
	}
}
MOTION
Frames: 7
Frame Time: 0.041667
-12.154786 9.201107 42.989197 -174.468178 9.772136 175.591974 -2.392951 18.513470 -14.907345 -1.196395 -24.342590 36.462947 0.000000 0.000000 0.000000 8.731169 60.164093 7.163194 11.483633 -55.414181 -75.273112 -25.889900 -8.838150 -5.940270 -34.437599 -30.820999 38.000599 -180.000000 -84.048897 180.000000 32.444500 -4.199980 14.786800 24.221300 2.909790 2.486820 29.327101 20.385099 1.116150 -180.000000 88.814102 -180.000000 -4.729390 2.077330 -29.867001 2.687966 5.598578 8.014259 0.000000 0.000000 10.454200 -2.394507 8.858285 2.162911 0.000000 0.000000 -9.802380 -1.913165 14.649591 -7.942667 0.000000 0.000000 14.443500 13.381372 -17.842718 13.957904 0.000000 0.000000 -25.746200 
-12.110710 9.195213 42.954589 -174.768512 9.037269 175.700342 -2.272551 18.593735 -15.114231 -1.629883 -24.463106 36.685212 0.000000 0.000000 0.000000 8.083595 60.001085 6.108223 11.200264 -55.328422 -74.919730 -25.741899 -8.933770 -5.991810 -33.752998 -30.574900 38.418201 180.000000 -86.192299 -180.000000 29.222900 -2.510100 13.159800 24.140200 2.752600 2.260580 28.779400 19.287001 0.756695 0.000000 87.854500 0.000000 -5.630480 3.417500 -38.861698 2.646841 5.290718 8.080685 0.000000 0.000000 10.223800 -2.600328 8.406776 2.187617 0.000000 0.000000 -9.879280 -2.032319 14.837969 -8.026550 0.000000 0.000000 14.110200 13.203255 -17.743784 14.271418 0.000000 0.000000 -25.806700 
-12.061524 9.188416 42.916816 -175.049437 8.367511 175.775934 -2.164746 18.656830 -15.310360 -1.918968 -24.545462 36.911209 0.000000 0.000000 0.000000 7.019989 59.936797 4.773743 11.578386 -55.421548 -75.061443 -25.678200 -8.984510 -6.184490 -33.048199 -30.197399 39.286999 180.000000 -88.766296 -180.000000 26.174801 -1.571320 12.610200 24.017200 2.645140 1.943830 28.051800 17.706800 0.940546 0.000000 84.898300 0.000000 -6.094060 4.706270 -46.233898 2.657933 5.039014 8.182540 0.000000 0.000000 10.068500 -2.829228 7.983190 2.142068 0.000000 0.000000 -9.881740 -2.043369 15.108788 -8.111690 0.000000 0.000000 14.255800 12.369660 -17.257481 15.153937 0.000000 0.000000 -25.995500 
-12.006773 9.181194 42.878411 -175.370806 7.697240 175.908939 -2.021398 18.873677 -15.410966 -2.379812 -24.583764 36.938533 0.000000 0.000000 0.000000 6.732424 59.700465 4.005526 11.244812 -55.247332 -74.783757 -25.659201 -9.010080 -6.160990 -32.192902 -29.867201 40.443401 0.000000 -88.149498 0.000000 23.827200 -0.690179 12.841500 23.735800 2.131820 1.600170 27.833700 15.296500 2.522660 0.000000 82.080704 0.000000 -8.245980 8.905240 -48.027302 2.649309 4.758053 8.179018 0.000000 0.000000 10.009400 -3.051280 7.605701 2.101598 0.000000 0.000000 -9.937210 -2.091986 15.729817 -8.371178 0.000000 0.000000 15.023700 11.527595 -16.836612 15.463430 0.000000 0.000000 -25.963500 
-11.945793 9.173102 42.836869 -175.678278 6.999759 176.091858 -1.958939 18.962066 -15.601713 -2.671051 -24.635375 36.999441 0.000000 0.000000 0.000000 5.964100 59.478408 2.813461 11.111526 -55.231091 -74.501623 -25.657801 -9.041140 -6.175340 -31.386900 -29.387400 41.780899 0.000000 -84.880302 0.000000 21.249001 0.202637 14.970900 23.574400 1.621600 1.023760 26.913000 13.052100 4.576350 0.000000 80.216103 0.000000 -8.253210 10.034600 -47.794498 2.649348 4.297038 8.079131 0.000000 0.000000 10.081500 -3.304760 7.372125 1.979772 0.000000 0.000000 -9.967100 -2.079751 16.616201 -8.686398 0.000000 0.000000 16.070299 11.261807 -17.740757 14.337380 0.000000 0.000000 -24.670510 
-11.881028 9.169279 42.791558 -175.843857 6.207845 176.068300 -1.731326 18.997990 -15.620987 -2.924541 -24.769922 37.276065 0.000000 0.000000 0.000000 4.982792 59.264250 1.365289 10.705629 -55.170485 -74.118627 -25.751699 -9.147130 -6.185930 -30.436701 -28.782801 43.077301 0.000000 -81.620201 0.000000 18.223200 1.601760 18.570900 23.310499 0.985814 0.185181 26.058100 10.508200 7.745230 0.000000 78.933601 0.000000 -8.060720 11.387600 -47.808701 2.792133 3.621657 8.144716 0.000000 0.000000 10.268600 -3.626365 7.267119 1.840590 0.000000 0.000000 -10.005410 -1.892020 17.643592 -8.566270 0.000000 0.000000 16.752199 12.638448 -19.786873 13.108988 0.000000 0.000000 -24.049320 
-11.812434 9.171237 42.741878 -175.764492 5.247359 176.038932 -1.255242 19.066345 -15.768786 -3.473096 -25.050326 37.990887 0.000000 0.000000 0.000000 3.858805 58.970089 -0.519479 10.253807 -54.936541 -73.663961 -25.743401 -9.314700 -6.162120 -29.403999 -28.043100 44.289398 0.000000 -78.462196 0.000000 15.305400 3.581450 22.894800 23.194099 0.251634 -0.538282 25.096001 7.720230 11.245100 0.000000 78.674500 0.000000 -4.410610 10.894800 -49.102600 3.186844 2.819889 8.149666 0.000000 0.000000 10.608000 -3.860008 7.193101 1.668536 0.000000 0.000000 -10.011850 -1.483987 18.443163 -8.170249 0.000000 0.000000 17.023600 14.933858 -21.168602 12.001579 0.000000 0.000000 -23.368790 
